<svg width="9" height="10" viewBox="0 0 9 10" fill="none" xmlns="http://www.w3.org/2000/svg">
<path d="M8.54585 8.45425L7.00002 6.92092C7.60006 6.17275 7.89065 5.22312 7.81203 4.26729C7.7334 3.31146 7.29155 2.42208 6.57732 1.78202C5.86309 1.14196 4.93077 0.799878 3.97207 0.826112C3.01337 0.852345 2.10116 1.2449 1.423 1.92306C0.744839 2.60122 0.352284 3.51343 0.326051 4.47213C0.299817 5.43084 0.641899 6.36315 1.28196 7.07738C1.92201 7.79161 2.8114 8.23347 3.76723 8.31209C4.72306 8.39071 5.67269 8.10012 6.42085 7.50008L7.95419 9.03342C7.99292 9.07247 8.03901 9.10347 8.08978 9.12462C8.14056 9.14577 8.19502 9.15666 8.25002 9.15666C8.30503 9.15666 8.35949 9.14577 8.41026 9.12462C8.46104 9.10347 8.50712 9.07247 8.54585 9.03342C8.62095 8.95572 8.66293 8.85189 8.66293 8.74383C8.66293 8.63578 8.62095 8.53194 8.54585 8.45425ZM4.08335 7.50008C3.50649 7.50008 2.94258 7.32902 2.46294 7.00854C1.9833 6.68805 1.60946 6.23253 1.38871 5.69958C1.16795 5.16663 1.11019 4.58018 1.22273 4.0144C1.33527 3.44862 1.61306 2.92892 2.02096 2.52102C2.42886 2.11312 2.94856 1.83533 3.51434 1.72279C4.08012 1.61025 4.66656 1.66801 5.19951 1.88877C5.73247 2.10952 6.18799 2.48336 6.50847 2.963C6.82896 3.44265 7.00002 4.00655 7.00002 4.58342C7.00002 5.35696 6.69273 6.09883 6.14575 6.64581C5.59877 7.19279 4.8569 7.50008 4.08335 7.50008Z" fill="#161515"/>
</svg>
